<?xml version="1.0" encoding="UTF-8"?>
<svg xmlns="http://www.w3.org/2000/svg" xmlns:xlink="http://www.w3.org/1999/xlink" viewBox="0 0 682.95 378.51">
  <defs>
    <style>
      .cls-1 {
        fill: none;
      }

      .cls-2 {
        fill: #2db5b1;
      }

      .cls-3 {
        fill: #6e378d;
      }

      .cls-4 {
        isolation: isolate;
      }

      .cls-5 {
        fill: #fff;
      }

      .cls-6 {
        fill: #00adba;
      }

      .cls-7 {
        clip-path: url(#clippath);
      }

      .cls-8 {
        mix-blend-mode: screen;
        opacity: .3;
      }
    </style>
    <clipPath id="clippath">
      <rect class="cls-1" x="-198.02" y="-2474.58" width="1700.79" height="1417.32" rx="138.31" ry="138.31"/>
    </clipPath>
  </defs>
  <g class="cls-4">
    <g id="Layer_1" data-name="Layer 1">
      <g class="cls-8">
        <g class="cls-7">
          <path class="cls-3" d="M1191.45,762.06l-187.91,86.23c-5.48-11.6-550.62-1165.83-748.73-1614.5-60.87-137.86-104.97-203.5-130.97-234.18-9.97,30.14-21.03,81.1-24.99,158.67-5.48,107.44,4.97,227.15,27.94,320.22l-200.74,49.56c-31.27-126.68-42.79-284.66-30.8-422.6,6.39-73.53,19.02-136.04,37.53-185.79,27.9-74.97,70.37-122.65,126.22-141.71,28.65-9.78,73.99-16.04,127.26,9.66,31.73,15.31,61.95,39.87,92.37,75.08,52.77,61.08,106.84,155.14,165.32,287.57,5.05,11.44,10.32,23.31,15.81,35.65-10.45-59.27-18.79-115.75-24.98-169.32-34.92-302.12-3.04-513.44,97.45-646.02,45.23-59.68,103.69-102.11,173.73-126.1,68.49-23.45,148.11-28.83,236.67-15.99,135.37-204.53,334.64-366.34,343.87-373.79l129.75,160.98c-1.72,1.39-144.78,117.84-258.78,267.37,29.03,10.76,57.5,22.81,85.31,36.12,86.87,41.57,168.08,95.71,241.35,160.92,131.86,117.36,237.36,269.94,305.09,441.23,54.18,137.03,81.4,278.82,78.72,410.04-2.88,140.9-40.25,260.4-108.05,345.6-18.31,23-38.61,43.2-60.66,60.51-80.03,62.82-183.16,87.59-298.09,70.19-108.62-16.44-209.99-65.92-301.29-147.08-82.17-73.03-151.98-167.94-207.49-282.08-38.63-79.42-68.83-165.54-89.78-255.97-21.18-91.43-32.39-185.11-33.31-278.44-1.45-147.17,22.81-288.42,70.85-415.81-51.12,1.77-105.05,16.99-143.1,67.19-45.25,59.7-91.85,194.46-56.83,497.38,24.28,210.08,84.44,470.45,178.79,773.88,162.1,521.31,370.39,990.63,372.48,995.31ZM1048.63-1535.88c-49,112.52-73.94,241.6-72.6,377.95,1.53,155.14,37.85,313.54,102.28,446.02,87.28,179.47,216.23,294.34,353.78,315.16,73.41,11.11,127.72-6.9,166.03-55.03,38.78-48.72,61.19-127.23,63.11-221.07,2.13-104.01-20.1-218.05-64.28-329.78-55.9-141.37-142.44-266.83-250.28-362.8-88.22-78.52-188.07-135.56-298.05-170.43Z"/>
        </g>
      </g>
      <g>
        <g>
          <g>
            <path class="cls-5" d="M337.71,115.58v109h-22.55v-109h22.55Z"/>
            <path class="cls-5" d="M513.77,115.58l-33.83,109h-23.74l-21.96-80.51-21.96,80.51h-23.74l-34.03-109h22.95l22.75,87.64,23.15-87.64h23.54l22.16,87.24,22.55-87.24h22.16Z"/>
            <path class="cls-5" d="M629.3,115.58v109h-22.55v-12.86c-3.56,4.48-8.21,8.01-13.95,10.58-5.74,2.57-11.84,3.86-18.3,3.86-8.57,0-16.26-1.78-23.05-5.34-6.79-3.56-12.14-8.83-16.02-15.83-3.89-6.99-5.84-15.43-5.84-25.32v-64.1h22.35v60.73c0,9.76,2.44,17.24,7.32,22.45,4.88,5.21,11.54,7.81,19.98,7.81s15.13-2.6,20.08-7.81c4.95-5.21,7.42-12.69,7.42-22.45v-60.73h22.55Z"/>
          </g>
          <circle class="cls-6" cx="325.64" cy="85" r="15.3"/>
          <path class="cls-6" d="M80.17,329.72l-23.43-5.76c.36-1.53,35.97-153.85,51.17-212.02,5.16-19.73,5.53-29.48,5.14-33.93-9.13,5.15-28.2,25.31-38.5,47.6l-21.9-10.12c10.13-21.93,44.73-70.83,70.24-61.69,20.38,7.31,15.18,38.17,8.36,64.24-.89,3.4-1.85,7.13-2.87,11.14,29.34-55.82,58.2-82.19,87.61-80.3,12.26.79,24.34,6.97,35.91,18.38.22.21.43.43.64.64,15.13-4.52,31.56-5.36,48.96-2.5l-3.92,23.81c-10.81-1.78-21.04-1.78-30.57,0,4.86,10.53,7.99,22.81,9.25,36.48,1.93,20.91-.64,44.6-7.22,66.72-11.42,38.4-31.8,64.08-54.53,68.69-12.96,2.63-26.93-1.37-36.47-10.43-14.42-13.72-19.17-39.81-13.01-71.58,4.29-22.15,13.56-44.57,26.11-63.12,10.65-15.73,23.36-28.33,37.38-37.13-3.81-2.81-8.76-5.55-14.09-5.89-25.08-1.6-57.94,43.42-90.27,123.52-26.46,65.57-43.84,132.57-44.01,133.24ZM244.3,97.59c-23.07,13.4-47.29,43.29-55.57,86.08-4.35,22.5-2.02,41.93,5.96,49.51,3.8,3.61,9.84,5.33,15.04,4.27,13.21-2.68,27.76-23.55,36.2-51.92,8.27-27.81,10.27-64.08-1.62-87.94Z"/>
        </g>
        <g>
          <path class="cls-2" d="M318.87,247.39c.58-.31,1.24-.47,1.99-.47.87,0,1.65.21,2.35.64.7.43,1.26,1.04,1.67,1.82.41.79.61,1.7.61,2.74s-.2,1.96-.61,2.76c-.41.8-.97,1.42-1.67,1.86-.7.44-1.49.66-2.35.66-.75,0-1.4-.15-1.97-.46-.57-.31-1.03-.69-1.38-1.15v6.29h-2.57v-14.99h2.57v1.47c.33-.46.78-.85,1.37-1.16ZM322.49,250.54c-.25-.45-.58-.78-.99-1.02-.41-.23-.85-.35-1.33-.35s-.9.12-1.31.36c-.41.24-.74.58-.99,1.04-.25.45-.38.98-.38,1.59s.13,1.14.38,1.59c.25.45.58.8.99,1.04.41.24.85.36,1.31.36s.92-.12,1.33-.37c.41-.24.74-.59.99-1.04.25-.45.38-.99.38-1.61s-.13-1.14-.38-1.58Z"/>
          <path class="cls-5" d="M333.39,247.66c.62-.39,1.42-.58,2.38-.58v.86h-.27c-.98,0-1.79.28-2.44.83-.65.56-.97,1.46-.97,2.72v5.74h-.82v-9.95h.82v2.05c.24-.73.68-1.29,1.3-1.68Z"/>
          <path class="cls-5" d="M343.21,256.76c-.75-.42-1.33-1.01-1.75-1.79-.42-.78-.63-1.68-.63-2.72s.21-1.93.64-2.7c.43-.78,1.02-1.37,1.77-1.78.75-.41,1.59-.61,2.52-.61s1.77.21,2.51.61c.75.41,1.33,1,1.75,1.77.42.77.63,1.67.63,2.71s-.21,1.95-.64,2.72c-.43.78-1.02,1.37-1.77,1.79-.75.42-1.59.62-2.52.62s-1.77-.21-2.51-.62ZM347.75,256.16c.63-.32,1.13-.82,1.51-1.47.38-.66.57-1.47.57-2.44s-.19-1.76-.57-2.42-.88-1.15-1.5-1.48-1.3-.49-2.02-.49-1.39.16-2.01.49c-.62.32-1.11.82-1.49,1.48-.38.66-.57,1.47-.57,2.42s.19,1.78.56,2.44c.37.66.87,1.15,1.48,1.47.62.32,1.29.49,2.01.49s1.4-.16,2.02-.49Z"/>
          <path class="cls-5" d="M363.79,247.92c.73.51,1.25,1.16,1.54,1.95v-2.58h.82v10.26c0,.92-.2,1.72-.6,2.41s-.95,1.22-1.63,1.59c-.68.37-1.45.56-2.29.56-1.25,0-2.28-.3-3.1-.9-.82-.6-1.36-1.41-1.61-2.42h.82c.24.79.7,1.43,1.37,1.9s1.51.71,2.51.71c.7,0,1.33-.16,1.89-.47.56-.31,1-.76,1.33-1.34s.49-1.26.49-2.04v-2.91c-.29.79-.81,1.45-1.55,1.97-.74.52-1.63.78-2.67.78-.93,0-1.76-.21-2.48-.63-.73-.42-1.29-1.02-1.7-1.8-.41-.78-.61-1.68-.61-2.7s.2-1.92.61-2.69c.41-.77.98-1.36,1.7-1.78.73-.42,1.55-.62,2.48-.62,1.05,0,1.94.25,2.68.76ZM364.79,249.95c-.36-.67-.85-1.18-1.48-1.54s-1.32-.54-2.09-.54-1.51.17-2.13.52c-.61.35-1.09.85-1.43,1.51-.34.66-.51,1.44-.51,2.35s.17,1.69.51,2.35c.34.66.82,1.17,1.44,1.52.62.35,1.32.53,2.12.53s1.47-.18,2.1-.54,1.12-.87,1.48-1.54c.35-.67.53-1.44.53-2.32s-.18-1.63-.54-2.3Z"/>
          <path class="cls-5" d="M374.95,247.66c.62-.39,1.42-.58,2.38-.58v.86h-.27c-.98,0-1.79.28-2.44.83-.65.56-.97,1.46-.97,2.72v5.74h-.82v-9.95h.82v2.05c.24-.73.68-1.29,1.3-1.68Z"/>
          <path class="cls-5" d="M391.83,252.58h-8.59c.02.89.22,1.64.59,2.25s.85,1.07,1.45,1.37c.6.31,1.25.46,1.96.46.98,0,1.8-.24,2.46-.72.66-.48,1.07-1.14,1.25-1.97h.86c-.2,1.01-.7,1.84-1.5,2.46-.81.63-1.83.94-3.06.94-.93,0-1.76-.21-2.49-.62-.73-.42-1.31-1.01-1.72-1.79-.42-.78-.62-1.68-.62-2.72s.2-1.94.61-2.71c.41-.77.98-1.36,1.71-1.77.73-.41,1.57-.61,2.51-.61s1.78.21,2.48.61c.7.41,1.24.95,1.6,1.63s.55,1.41.55,2.19c0,.44-.01.77-.04.99ZM390.57,249.67c-.35-.61-.82-1.07-1.42-1.37-.6-.3-1.25-.45-1.94-.45s-1.34.15-1.93.45c-.59.3-1.08.75-1.45,1.37-.37.61-.57,1.36-.6,2.24h7.81c.04-.88-.12-1.62-.47-2.24Z"/>
          <path class="cls-5" d="M398.62,256.65c-.7-.49-1.1-1.19-1.18-2.09h.84c.06.65.36,1.16.89,1.54.53.38,1.26.57,2.17.57.76,0,1.36-.19,1.8-.58.45-.38.67-.86.67-1.42,0-.39-.12-.71-.36-.96-.24-.25-.53-.44-.89-.58-.35-.13-.84-.28-1.45-.44-.73-.2-1.33-.39-1.78-.58-.45-.19-.84-.47-1.15-.85-.32-.38-.48-.89-.48-1.52,0-.46.14-.89.42-1.29.28-.4.67-.71,1.17-.94.5-.23,1.07-.35,1.7-.35,1.04,0,1.88.26,2.52.78s.99,1.24,1.04,2.15h-.82c-.04-.66-.29-1.2-.77-1.61-.48-.42-1.14-.62-1.98-.62-.71,0-1.29.18-1.76.55-.46.37-.7.81-.7,1.34,0,.46.13.84.39,1.13.26.29.59.51.97.66.39.15.89.31,1.53.49.7.18,1.26.36,1.68.54.42.18.78.43,1.07.77s.44.79.44,1.35c0,.51-.14.98-.42,1.39-.28.42-.67.74-1.17.97-.5.23-1.06.35-1.69.35-1.11,0-2.02-.24-2.72-.73Z"/>
          <path class="cls-5" d="M411.39,256.65c-.7-.49-1.1-1.19-1.18-2.09h.84c.06.65.36,1.16.89,1.54.53.38,1.26.57,2.17.57.76,0,1.36-.19,1.8-.58.45-.38.67-.86.67-1.42,0-.39-.12-.71-.36-.96-.24-.25-.53-.44-.89-.58-.35-.13-.84-.28-1.45-.44-.73-.2-1.33-.39-1.78-.58-.45-.19-.84-.47-1.15-.85-.32-.38-.48-.89-.48-1.52,0-.46.14-.89.42-1.29.28-.4.67-.71,1.17-.94.5-.23,1.07-.35,1.7-.35,1.04,0,1.88.26,2.52.78s.99,1.24,1.04,2.15h-.82c-.04-.66-.29-1.2-.77-1.61-.48-.42-1.14-.62-1.98-.62-.71,0-1.29.18-1.76.55-.46.37-.7.81-.7,1.34,0,.46.13.84.39,1.13.26.29.59.51.97.66.39.15.89.31,1.53.49.7.18,1.26.36,1.68.54.42.18.78.43,1.07.77s.44.79.44,1.35c0,.51-.14.98-.42,1.39-.28.42-.67.74-1.17.97-.5.23-1.06.35-1.69.35-1.11,0-2.02-.24-2.72-.73Z"/>
          <path class="cls-5" d="M423.49,244.88c-.13-.13-.2-.3-.2-.52,0-.21.07-.38.2-.51s.3-.2.49-.2.36.07.49.2c.13.13.2.31.2.51,0,.22-.07.39-.2.52-.13.13-.3.19-.49.19s-.36-.06-.49-.19ZM424.39,247.29v9.95h-.82v-9.95h.82Z"/>
          <path class="cls-5" d="M434.45,256.34l3.67-9.05h.88l-4.12,9.95h-.86l-4.12-9.95h.9l3.67,9.05Z"/>
          <path class="cls-5" d="M453.4,252.58h-8.59c.02.89.22,1.64.59,2.25s.85,1.07,1.45,1.37c.6.31,1.25.46,1.96.46.98,0,1.8-.24,2.46-.72.66-.48,1.07-1.14,1.25-1.97h.86c-.2,1.01-.7,1.84-1.5,2.46-.81.63-1.83.94-3.06.94-.93,0-1.76-.21-2.49-.62-.73-.42-1.31-1.01-1.72-1.79-.42-.78-.62-1.68-.62-2.72s.2-1.94.61-2.71c.41-.77.98-1.36,1.71-1.77.73-.41,1.57-.61,2.51-.61s1.78.21,2.48.61c.7.41,1.24.95,1.6,1.63s.55,1.41.55,2.19c0,.44-.01.77-.04.99ZM452.14,249.67c-.35-.61-.82-1.07-1.42-1.37-.6-.3-1.25-.45-1.94-.45s-1.34.15-1.93.45c-.59.3-1.08.75-1.45,1.37-.37.61-.57,1.36-.6,2.24h7.81c.04-.88-.12-1.62-.47-2.24Z"/>
          <path class="cls-2" d="M468.51,245.44c-.3-.29-.45-.64-.45-1.07s.15-.78.45-1.07c.3-.29.67-.43,1.13-.43s.83.14,1.13.43c.3.29.45.64.45,1.07s-.15.79-.45,1.07-.68.43-1.13.43-.83-.14-1.13-.43ZM470.9,247.08v10.15h-2.57v-10.15h2.57Z"/>
          <path class="cls-5" d="M477.43,249.56c.41-.77.98-1.36,1.7-1.78.73-.42,1.55-.62,2.48-.62,1.01,0,1.89.25,2.64.76.75.51,1.27,1.16,1.58,1.97v-6.21h.82v13.56h-.82v-2.64c-.29.82-.81,1.49-1.54,2.01-.73.52-1.62.78-2.68.78-.93,0-1.76-.21-2.48-.63-.73-.42-1.29-1.02-1.7-1.8-.41-.78-.61-1.68-.61-2.7s.2-1.92.61-2.69ZM485.29,249.95c-.36-.67-.85-1.18-1.48-1.54s-1.32-.54-2.09-.54-1.51.17-2.13.52c-.61.35-1.09.85-1.43,1.51-.34.66-.51,1.44-.51,2.35s.17,1.69.51,2.35c.34.66.82,1.17,1.44,1.52.62.35,1.32.53,2.12.53s1.47-.18,2.1-.54,1.12-.87,1.48-1.54c.35-.67.53-1.44.53-2.32s-.18-1.63-.54-2.3Z"/>
          <path class="cls-5" d="M502.25,252.58h-8.59c.02.89.22,1.64.59,2.25s.85,1.07,1.45,1.37c.6.31,1.25.46,1.96.46.98,0,1.8-.24,2.46-.72.66-.48,1.07-1.14,1.25-1.97h.86c-.2,1.01-.7,1.84-1.5,2.46-.81.63-1.83.94-3.06.94-.93,0-1.76-.21-2.49-.62-.73-.42-1.31-1.01-1.72-1.79-.42-.78-.62-1.68-.62-2.72s.2-1.94.61-2.71c.41-.77.98-1.36,1.71-1.77.73-.41,1.57-.61,2.51-.61s1.78.21,2.48.61c.7.41,1.24.95,1.6,1.63s.55,1.41.55,2.19c0,.44-.01.77-.04.99ZM501,249.67c-.35-.61-.82-1.07-1.42-1.37-.6-.3-1.25-.45-1.94-.45s-1.34.15-1.93.45c-.59.3-1.08.75-1.45,1.37-.37.61-.57,1.36-.6,2.24h7.81c.04-.88-.12-1.62-.47-2.24Z"/>
          <path class="cls-5" d="M508.55,249.56c.41-.77.98-1.36,1.7-1.78.73-.42,1.55-.62,2.48-.62,1.05,0,1.94.26,2.68.77.73.51,1.25,1.17,1.54,1.96v-2.6h.82v9.95h-.82v-2.62c-.29.81-.81,1.47-1.55,1.99-.74.52-1.63.78-2.67.78-.93,0-1.76-.21-2.48-.63-.73-.42-1.29-1.02-1.7-1.8-.41-.78-.61-1.68-.61-2.7s.2-1.92.61-2.69ZM516.41,249.95c-.36-.67-.85-1.18-1.48-1.54s-1.32-.54-2.09-.54-1.51.17-2.13.52c-.61.35-1.09.85-1.43,1.51-.34.66-.51,1.44-.51,2.35s.17,1.69.51,2.35c.34.66.82,1.17,1.44,1.52.62.35,1.32.53,2.12.53s1.47-.18,2.1-.54,1.12-.87,1.48-1.54c.35-.67.53-1.44.53-2.32s-.18-1.63-.54-2.3Z"/>
          <path class="cls-5" d="M525.04,256.65c-.7-.49-1.1-1.19-1.18-2.09h.84c.06.65.36,1.16.89,1.54.53.38,1.26.57,2.17.57.76,0,1.36-.19,1.8-.58.45-.38.67-.86.67-1.42,0-.39-.12-.71-.36-.96-.24-.25-.53-.44-.89-.58-.35-.13-.84-.28-1.45-.44-.73-.2-1.33-.39-1.78-.58-.45-.19-.84-.47-1.15-.85-.32-.38-.48-.89-.48-1.52,0-.46.14-.89.42-1.29.28-.4.67-.71,1.17-.94.5-.23,1.07-.35,1.7-.35,1.04,0,1.88.26,2.52.78s.99,1.24,1.04,2.15h-.82c-.04-.66-.29-1.2-.77-1.61-.48-.42-1.14-.62-1.98-.62-.71,0-1.29.18-1.76.55-.46.37-.7.81-.7,1.34,0,.46.13.84.39,1.13.26.29.59.51.97.66.39.15.89.31,1.53.49.7.18,1.26.36,1.68.54.42.18.78.43,1.07.77s.44.79.44,1.35c0,.51-.14.98-.42,1.39-.28.42-.67.74-1.17.97-.5.23-1.06.35-1.69.35-1.11,0-2.02-.24-2.72-.73Z"/>
          <path class="cls-2" d="M560.03,247.08l-2.97,10.15h-2.77l-1.85-7.09-1.85,7.09h-2.79l-2.99-10.15h2.6l1.8,7.73,1.94-7.73h2.71l1.91,7.71,1.8-7.71h2.46Z"/>
          <path class="cls-5" d="M565.25,244.88c-.13-.13-.2-.3-.2-.52,0-.21.07-.38.2-.51s.3-.2.49-.2.36.07.49.2c.13.13.2.31.2.51,0,.22-.07.39-.2.52-.13.13-.3.19-.49.19s-.36-.06-.49-.19ZM566.15,247.29v9.95h-.82v-9.95h.82Z"/>
          <path class="cls-5" d="M574.07,248v6.58c0,.73.13,1.24.4,1.51.27.28.75.41,1.43.41h1.12v.73h-1.25c-.87,0-1.51-.2-1.91-.61-.41-.41-.61-1.09-.61-2.04v-6.58h-1.5v-.71h1.5v-2.53h.82v2.53h2.95v.71h-2.95Z"/>
          <path class="cls-5" d="M590.25,248.18c.74.73,1.12,1.8,1.12,3.23v5.83h-.81v-5.77c0-1.18-.3-2.09-.9-2.72s-1.41-.94-2.44-.94-1.93.34-2.57,1.03c-.64.68-.96,1.7-.96,3.04v5.37h-.82v-13.56h.82v5.72c.28-.75.75-1.32,1.41-1.71.66-.4,1.42-.6,2.27-.6,1.17,0,2.13.36,2.88,1.09Z"/>
          <path class="cls-2" d="M616.27,247.08v10.15h-2.58v-1.28c-.33.44-.76.79-1.29,1.04-.53.25-1.11.38-1.73.38-.79,0-1.5-.17-2.11-.5-.61-.34-1.09-.83-1.44-1.48-.35-.65-.52-1.43-.52-2.34v-5.96h2.57v5.59c0,.81.2,1.43.6,1.86.4.43.95.65,1.65.65s1.26-.22,1.67-.65c.4-.43.6-1.05.6-1.86v-5.59h2.58Z"/>
          <path class="cls-5" d="M623.3,256.65c-.7-.49-1.1-1.19-1.18-2.09h.84c.06.65.36,1.16.89,1.54.53.38,1.26.57,2.17.57.76,0,1.36-.19,1.81-.58s.67-.86.67-1.42c0-.39-.12-.71-.36-.96-.24-.25-.53-.44-.89-.58-.35-.13-.84-.28-1.45-.44-.73-.2-1.33-.39-1.78-.58-.45-.19-.84-.47-1.15-.85-.32-.38-.48-.89-.48-1.52,0-.46.14-.89.42-1.29.28-.4.67-.71,1.17-.94.5-.23,1.07-.35,1.7-.35,1.04,0,1.88.26,2.52.78s.99,1.24,1.04,2.15h-.83c-.04-.66-.29-1.2-.77-1.61s-1.14-.62-1.98-.62c-.71,0-1.29.18-1.76.55-.46.37-.7.81-.7,1.34,0,.46.13.84.39,1.13.26.29.59.51.97.66.38.15.89.31,1.53.49.7.18,1.25.36,1.68.54.42.18.78.43,1.07.77.29.34.44.79.44,1.35,0,.51-.14.98-.42,1.39-.28.42-.67.74-1.17.97-.5.23-1.06.35-1.69.35-1.11,0-2.02-.24-2.72-.73Z"/>
        </g>
      </g>
    </g>
  </g>
</svg>